HIERARCHY
ROOT Hips
{
  OFFSET 51.6018 95.5423 12.6596
  CHANNELS 6 Xposition Yposition Zposition Zrotation Xrotation Yrotation
  JOINT spine
  {
    OFFSET 0 7.96568 0.458067
    CHANNELS 3 Zrotation Xrotation Yrotation
    JOINT spine1
    {
      OFFSET 0 10.2431 0
      CHANNELS 3 Zrotation Xrotation Yrotation
      JOINT spine2
      {
        OFFSET 0 9.81475 0
        CHANNELS 3 Zrotation Xrotation Yrotation
        JOINT Neck
        {
          OFFSET 0 25.1986 1.20138
          CHANNELS 3 Zrotation Xrotation Yrotation
          JOINT Head
          {
            OFFSET 0 7.61315 0
            CHANNELS 3 Zrotation Xrotation Yrotation
            End Site
            {
              OFFSET 0 18.4281 -6.07733
            }
          }
        }
        JOINT RightShoulder
        {
          OFFSET -4.1327 10.5992 -0.575451
          CHANNELS 3 Zrotation Xrotation Yrotation
          JOINT RightArm
          {
            OFFSET 0 13.9018 0
            CHANNELS 3 Zrotation Xrotation Yrotation
            JOINT RightArmRoll
            {
              OFFSET 0 7.01789 0
              CHANNELS 3 Zrotation Xrotation Yrotation
              JOINT RightForeArm
              {
                OFFSET 0 20.4406 0
                CHANNELS 3 Zrotation Xrotation Yrotation
                JOINT RightForeArmRoll
                {
                  OFFSET 0 7.87516 0
                  CHANNELS 3 Zrotation Xrotation Yrotation
                  JOINT RightHand
                  {
                    OFFSET 0 15.8037 0
                    CHANNELS 3 Zrotation Xrotation Yrotation
                    End Site
                    {
                      OFFSET 0 0 0
                    }
                  }
                }
              }
            }
          }
        }
        JOINT LeftShoulder
        {
          OFFSET 4.1327 10.5992 -0.575451
          CHANNELS 3 Zrotation Xrotation Yrotation
          JOINT LeftArm
          {
            OFFSET 0 13.9018 0
            CHANNELS 3 Zrotation Xrotation Yrotation
            JOINT LeftArmRoll
            {
              OFFSET 0 7.01789 0
              CHANNELS 3 Zrotation Xrotation Yrotation
              JOINT LeftForeArm
              {
                OFFSET 0 20.4406 0
                CHANNELS 3 Zrotation Xrotation Yrotation
                JOINT LeftForeArmRoll
                {
                  OFFSET 0 7.87516 0
                  CHANNELS 3 Zrotation Xrotation Yrotation
                  JOINT LeftHand
                  {
                    OFFSET 0 15.8037 0
                    CHANNELS 3 Zrotation Xrotation Yrotation
                    End Site
                    {
                      OFFSET 0 0 0
                    }
                  }
                }
              }
            }
          }
        }
      }
    }
  }
  JOINT RightUpLeg
  {
    OFFSET -7.06048 -1.2947 -1.0861
    CHANNELS 3 Zrotation Xrotation Yrotation
    JOINT RightUpLegRoll
    {
      OFFSET 0 18.5308 0
      CHANNELS 3 Zrotation Xrotation Yrotation
      JOINT RightLeg
      {
        OFFSET 0 -22.9476 0
        CHANNELS 3 Zrotation Xrotation Yrotation
        JOINT RightLegRoll
        {
          OFFSET 0 23.0226 0
          CHANNELS 3 Zrotation Xrotation Yrotation
          JOINT RightFoot
          {
            OFFSET 0 19.1625 0
            CHANNELS 3 Zrotation Xrotation Yrotation
            JOINT RightToeBase
            {
              OFFSET 0 16.0188 0
              CHANNELS 3 Zrotation Xrotation Yrotation
              End Site
              {
                OFFSET 0.00678979 7.75782 -0.894206
              }
            }
          }
        }
      }
    }
  }
  JOINT LeftUpLeg
  {
    OFFSET 7.06048 -1.2947 -1.0861
    CHANNELS 3 Zrotation Xrotation Yrotation
    JOINT LeftUpLegRoll
    {
      OFFSET 0 18.5309 0
      CHANNELS 3 Zrotation Xrotation Yrotation
      JOINT LeftLeg
      {
        OFFSET 0 22.9475 0
        CHANNELS 3 Zrotation Xrotation Yrotation
        JOINT LeftLegRoll
        {
          OFFSET 0 23.2355 0
          CHANNELS 3 Zrotation Xrotation Yrotation
          JOINT LeftFoot
          {
            OFFSET 0 18.9496 0
            CHANNELS 3 Zrotation Xrotation Yrotation
            JOINT LeftToeBase
            {
              OFFSET 0 16.0188 0
              CHANNELS 3 Zrotation Xrotation Yrotation
              End Site
              {
                OFFSET -0.0304289 7.75781 -0.894207
              }
            }
          }
        }
      }
    }
  }
}
MOTION
Frames: 10
Frame Time: 0.00208333
49.9096 95.6874 14.3663 -1.17494 -0.851008 2.07422 0.107952 -2.16136 -0.0557175 0.232176 -0.32005 -0.121601 0.233689 1.32502 -0.125507 -0.0669481 18.2321 -0.841853 0.927943 2.78307 -0.79824 72.3606 0.276265 -1.46524 104.71 17.3801 21.4938 3.3794e-006 2.05698e-006 1.09392e-006 2.5766 0.0221565 -0.224165 -1.6112e-005 -1.72356e-006 -3.04156 8.02995 -4.95139 0.697635 -72.9156 1.58529 0.930883 -106.016 17.798 -18.8967 1.43125e-014 9.54166e-015 -3.18055e-015 -0.797172 12.0099 -0.587877 4.36283e-006 -5.85671e-007 3.00405 -8.03018 -4.95137 -0.697623 176.44 -2.18401 -2.66224 180 7.01529e-015 178.848 177.975 3.96681 179.576 1.37232e-006 -3.99963e-006 0.0528817 -18.8681 67.9842 19.5186 8.13637 25.3749 -3.29358 -173.838 -0.572957 0.109083 4.54188e-006 -4.6773e-006 -1.16925 -2.22318 -6.81724 0.0734294 4.60539e-006 2.17844e-006 -0.145942 20.2525 69.5953 -20.9745 -8.13059 25.3333 3.35883 
49.8924 95.6842 14.3599 -1.17313 -0.841307 2.06398 0.107748 -2.16469 -0.0579083 0.230283 -0.326702 -0.126027 0.231848 1.31837 -0.129897 -0.0786321 18.2571 -0.83082 0.932486 2.76989 -0.790368 72.3712 0.295272 -1.45757 104.699 17.3774 21.4969 3.3794e-006 2.05698e-006 1.09392e-006 2.57972 0.0221564 -0.225756 -1.6112e-005 -1.72356e-006 -3.04156 8.02995 -4.95139 0.697635 -72.9332 1.57596 0.937176 -105.992 17.7861 -18.8433 7.15625e-015 0 -3.18055e-015 -0.889486 11.89 -0.569772 4.36283e-006 -5.85671e-007 3.00405 -8.03018 -4.95137 -0.697623 176.433 -2.16798 -2.65341 180 7.01529e-015 178.848 177.965 3.97279 179.576 1.37232e-006 -3.99963e-006 0.0528817 -18.867 67.9828 19.5174 8.1363 25.3738 -3.29537 -173.839 -0.559497 0.109175 4.54188e-006 -4.6773e-006 -1.16925 -2.22534 -6.82234 0.0732565 4.60539e-006 2.17844e-006 -0.145914 20.2501 69.5929 -20.972 -8.13064 25.3341 3.35692 
49.8929 95.6858 14.3638 -1.17117 -0.831237 2.05347 0.107561 -2.16821 -0.0601733 0.228372 -0.333748 -0.130607 0.22999 1.31132 -0.134441 -0.0916529 18.2837 -0.819186 0.93797 2.75561 -0.782231 72.3819 0.315132 -1.44952 104.687 17.3745 21.5003 3.3794e-006 2.05698e-006 1.09392e-006 2.58288 0.0221564 -0.22741 -1.6112e-005 -1.72356e-006 -3.04156 8.02995 -4.95139 0.697635 -72.9526 1.56628 0.943855 -105.966 17.7744 -18.7893 -5.56597e-015 -3.18055e-015 -6.36111e-015 -0.983692 11.7668 -0.551298 4.36283e-006 -5.85671e-007 3.00405 -8.03018 -4.95137 -0.697623 176.427 -2.15137 -2.64418 180 7.01529e-015 178.848 177.955 3.97896 179.577 1.37232e-006 -3.99963e-006 0.0528817 -18.8658 67.9814 19.5161 8.13622 25.3726 -3.29726 -173.841 -0.545884 0.109388 4.54188e-006 -4.6773e-006 -1.16925 -2.22761 -6.82686 0.0730814 4.60539e-006 2.17844e-006 -0.145872 20.2474 69.5901 -20.9691 -8.13069 25.3349 3.35495 
49.8914 95.6871 14.3635 -1.16911 -0.820907 2.04278 0.107385 -2.17187 -0.0624905 0.226445 -0.341072 -0.135297 0.228119 1.304 -0.139094 -0.105619 18.3115 -0.807129 0.944117 2.74054 -0.773907 72.3928 0.335593 -1.44121 104.675 17.3713 21.5038 3.3794e-006 2.05698e-006 1.09392e-006 2.58607 0.0221563 -0.229107 -1.6112e-005 -1.72356e-006 -3.04156 8.02995 -4.95139 0.697635 -72.9734 1.55635 0.950805 -105.938 17.7628 -18.735 4.77083e-015 0 -3.18055e-015 -1.0792 11.6412 -0.532571 4.36283e-006 -5.85671e-007 3.00405 -8.03018 -4.95137 -0.697623 176.419 -2.13437 -2.63468 180 7.01529e-015 178.848 177.944 3.98523 179.578 1.37232e-006 -3.99963e-006 0.0528817 -18.8646 67.98 19.5148 8.13613 25.3714 -3.29922 -173.842 -0.532163 0.109684 4.54188e-006 -4.6773e-006 -1.16925 -2.22995 -6.83098 0.0729046 4.60539e-006 2.17844e-006 -0.145819 20.2445 69.587 -20.9659 -8.13075 25.3357 3.35296 
49.8864 95.6847 14.3583 -1.16698 -0.810428 2.03199 0.107216 -2.17561 -0.064838 0.22451 -0.348556 -0.140049 0.22624 1.29651 -0.143809 -0.120138 18.34 -0.794824 0.950651 2.72503 -0.765475 72.4038 0.356401 -1.43274 104.663 17.3681 21.5075 3.3794e-006 2.05698e-006 1.09392e-006 2.58927 0.0221563 -0.23083 -1.6112e-005 -1.72356e-006 -3.04156 8.02995 -4.95139 0.697635 -72.9949 1.54629 0.957912 -105.909 17.7513 -18.6805 -3.18055e-015 -6.36111e-015 -3.18055e-015 -1.17543 11.5143 -0.513707 4.36283e-006 -5.85671e-007 3.00405 -8.03018 -4.95137 -0.697623 176.412 -2.11713 -2.62502 180 7.01529e-015 178.848 177.934 3.99159 179.579 1.37232e-006 -3.99963e-006 0.0528817 -18.8634 67.9786 19.5135 8.13605 25.3701 -3.30122 -173.843 -0.518379 0.110029 4.54188e-006 -4.6773e-006 -1.16925 -2.23233 -6.83486 0.0727269 4.60539e-006 2.17844e-006 -0.145761 20.2413 69.5838 -20.9626 -8.1308 25.3365 3.35095 
49.884 95.6848 14.3599 -1.16483 -0.799907 2.02118 0.107048 -2.17938 -0.0671937 0.222571 -0.356084 -0.144818 0.224358 1.28899 -0.148541 -0.134817 18.3686 -0.78245 0.957294 2.7094 -0.757014 72.4148 0.377304 -1.42424 104.651 17.3648 21.5112 3.3794e-006 2.05698e-006 1.09392e-006 2.59249 0.0221562 -0.232559 -1.6112e-005 -1.72356e-006 -3.04156 8.02995 -4.95139 0.697635 -73.0167 1.53619 0.965062 -105.879 17.7399 -18.6259 -5.56597e-015 -6.36111e-015 -3.18055e-015 -1.27178 11.387 -0.494819 4.36283e-006 -5.85671e-007 3.00405 -8.03018 -4.95137 -0.697623 176.405 -2.09983 -2.61531 180 7.01529e-015 178.848 177.923 3.99799 179.58 1.37232e-006 -3.99963e-006 0.0528817 -18.8622 67.9772 19.5122 8.13596 25.3689 -3.30323 -173.845 -0.504578 0.110387 4.54188e-006 -4.6773e-006 -1.16925 -2.23473 -6.83869 0.0725489 4.60539e-006 2.17844e-006 -0.145701 20.2381 69.5805 -20.9592 -8.13086 25.3373 3.34893 
49.8795 95.6822 14.3661 -1.1627 -0.789455 2.01041 0.106877 -2.1831 -0.0695356 0.220635 -0.363539 -0.149559 0.222478 1.28153 -0.153245 -0.149261 18.3969 -0.770182 0.963766 2.69397 -0.748602 72.4258 0.398049 -1.4158 104.639 17.3615 21.5148 3.3794e-006 2.05698e-006 1.09392e-006 2.59569 0.0221562 -0.234277 -1.6112e-005 -1.72356e-006 -3.04156 8.02995 -4.95139 0.697635 -73.0381 1.52615 0.97214 -105.85 17.7283 -18.5715 1.98785e-014 9.54166e-015 -0 -1.36769 11.2603 -0.476023 4.36283e-006 -5.85671e-007 3.00405 -8.03018 -4.95137 -0.697623 176.397 -2.08264 -2.60568 180 7.01529e-015 178.848 177.912 4.00433 179.581 1.37232e-006 -3.99963e-006 0.0528817 -18.861 67.9758 19.5109 8.13588 25.3676 -3.30522 -173.846 -0.490806 0.110722 4.54188e-006 -4.6773e-006 -1.16925 -2.2371 -6.84262 0.0723713 4.60539e-006 2.17844e-006 -0.145644 20.2351 69.5773 -20.9559 -8.13091 25.3381 3.34693 
49.8805 95.6842 14.366 -1.16064 -0.779181 1.99976 0.106698 -2.18673 -0.0718418 0.218707 -0.370803 -0.154225 0.220605 1.27427 -0.157874 -0.163078 18.4245 -0.7582 0.969791 2.67907 -0.740319 72.4366 0.418382 -1.40755 104.627 17.3584 21.5183 3.3794e-006 2.05698e-006 1.09392e-006 2.59887 0.0221561 -0.235965 -1.6112e-005 -1.72356e-006 -3.04156 8.02995 -4.95139 0.697635 -73.0586 1.51628 0.979032 -105.823 17.7166 -18.5173 2.62396e-014 1.27222e-014 6.36111e-015 -1.46257 11.1352 -0.45743 4.36283e-006 -5.85671e-007 3.00405 -8.03018 -4.95137 -0.697623 176.39 -2.06572 -2.59624 180 7.01529e-015 178.848 177.901 4.01059 179.582 1.37232e-006 -3.99963e-006 0.0528817 -18.8599 67.9744 19.5097 8.1358 25.3664 -3.30717 -173.848 -0.477108 0.111001 4.54188e-006 -4.6773e-006 -1.16925 -2.23943 -6.84682 0.0721949 4.60539e-006 2.17844e-006 -0.145593 20.2321 69.5742 -20.9527 -8.13096 25.3389 3.34494 
49.8766 95.6859 14.3684 -1.1587 -0.769193 1.98931 0.106505 -2.19021 -0.0740901 0.216792 -0.37776 -0.158771 0.218744 1.26731 -0.162383 -0.17587 18.4508 -0.74668 0.975088 2.66504 -0.732243 72.4473 0.438051 -1.39959 104.616 17.3555 21.5217 3.3794e-006 2.05698e-006 1.09392e-006 2.60202 0.022156 -0.237605 -1.6112e-005 -1.72356e-006 -3.04156 8.02995 -4.95139 0.697635 -73.0776 1.50668 0.985624 -105.797 17.7047 -18.4635 1.11319e-014 3.18055e-015 -0 -1.55584 11.0128 -0.439156 4.36283e-006 -5.85671e-007 3.00405 -8.03018 -4.95137 -0.697623 176.383 -2.04924 -2.5871 180 7.01529e-015 178.848 177.891 4.01671 179.583 1.37232e-006 -3.99963e-006 0.0528817 -18.8587 67.973 19.5084 8.13572 25.3653 -3.30904 -173.849 -0.463529 0.111186 4.54188e-006 -4.6773e-006 -1.16925 -2.24167 -6.85147 0.0720202 4.60539e-006 2.17844e-006 -0.145554 20.2295 69.5715 -20.9499 -8.13102 25.3397 3.34299 
49.8798 95.6856 14.3709 -1.1569 -0.759601 1.97914 0.106295 -2.19348 -0.0762587 0.214897 -0.384294 -0.163151 0.2169 1.26078 -0.166726 -0.187242 18.4753 -0.7358 0.97938 2.65219 -0.724453 72.4577 0.456802 -1.39203 104.605 17.3529 21.5247 3.3794e-006 2.05698e-006 1.09392e-006 2.60512 0.022156 -0.239177 -1.6112e-005 -1.72356e-006 -3.04156 8.02995 -4.95139 0.697635 -73.0945 1.49744 0.991801 -105.773 17.6925 -18.4102 7.95139e-016 9.54166e-015 -3.18055e-015 -1.64693 10.8939 -0.421311 4.36283e-006 -5.85671e-007 3.00405 -8.03018 -4.95137 -0.697623 176.377 -2.03338 -2.57838 180 7.01529e-015 178.848 177.881 4.02265 179.584 1.37232e-006 -3.99963e-006 0.0528817 -18.8576 67.9717 19.5072 8.13564 25.3641 -3.3108 -173.85 -0.450115 0.111243 4.54188e-006 -4.6773e-006 -1.16925 -2.2438 -6.85674 0.0718481 4.60539e-006 2.17844e-006 -0.14553 20.2273 69.5693 -20.9476 -8.13107 25.3405 3.34109 
